<svg xmlns="http://www.w3.org/2000/svg" viewBox="0 0 16 16" class="design-iconfont">
  <g fill="none" fill-rule="evenodd">
    <path fill="#0076FF" d="M8 0A8 8 0 1 0 8 16A8 8 0 1 0 8 0Z"/>
    <path d="M4.056,12.568 L4.968,10.168 L8.904,10.168 L9.816,12.568 L10.884,12.568 L7.512,4 L6.372,4 L3,12.568 L4.056,12.568 Z M8.592,9.34 L5.28,9.34 L6.924,5.056 L6.972,5.056 L8.592,9.34 Z M12.42,5.452 C12.624,5.452 12.792,5.38 12.936,5.248 C13.08,5.104 13.152,4.936 13.152,4.732 C13.152,4.516 13.08,4.348 12.936,4.228 C12.792,4.084 12.624,4.024 12.42,4.024 C12.216,4.024 12.048,4.084 11.904,4.228 C11.76,4.348 11.7,4.516 11.7,4.732 C11.7,4.936 11.76,5.104 11.904,5.248 C12.048,5.38 12.216,5.452 12.42,5.452 Z M12.9,12.568 L12.9,6.364 L11.94,6.364 L11.94,12.568 L12.9,12.568 Z" fill="#FFF" fill-rule="nonzero"/>
  </g>
</svg>
