<?xml version="1.0" standalone="no"?>
<!DOCTYPE svg PUBLIC "-//W3C//DTD SVG 1.1//EN" "http://www.w3.org/Graphics/SVG/1.1/DTD/svg11.dtd" >
<svg xmlns="http://www.w3.org/2000/svg">
  <metadata>Created by iconfont</metadata>
  <defs>
  <font id="iconfont" horiz-adv-x="1024">
    <font-face
      font-family="iconfont"
      font-weight="400"
      font-stretch="normal"
      units-per-em="1024"
      ascent="896"
      descent="-128"
    />
      <missing-glyph />
      
      <glyph glyph-name="mine" unicode="&#58941;" d="M512 896c282.331429 0 512-229.668571 512-512 0-276.48-220.16-502.418286-494.445714-511.707429L512-128c-282.331429 0-512 229.668571-512 512s229.668571 512 512 512z m0-97.938286c-236.982857 0-429.714286-189.220571-429.714286-421.888 0-232.594286 192.804571-421.888 429.714286-421.888 236.982857 0 429.714286 189.293714 429.714286 421.888 0 227.254857-183.881143 413.037714-413.257143 421.595429L512 797.988571zM512 662.820571a179.419429 179.419429 0 0 0 11.776-358.4l-11.702857-0.438857a179.419429 179.419429 0 1 0 0 358.838857z m0-82.212571c-53.686857 0-97.133714-40.740571-97.133714-90.843429 0-47.030857 38.180571-85.723429 87.186285-90.331428L512 398.921143c53.686857 0 97.133714 40.740571 97.133714 90.843428 0 50.102857-43.446857 90.843429-97.133714 90.843429zM512.585143 366.88457100000005a227.986286 227.986286 0 0 0 227.986286-228.059428l-0.146286-6.217143-82.285714-0.073143 0.146285 6.290286a145.700571 145.700571 0 1 1-291.401143 0l0.219429-6.217143H284.672l-0.073143 6.217143a227.986286 227.986286 0 0 0 227.986286 228.059428z"  horiz-adv-x="1024" />
      
      <glyph glyph-name="help-cocument" unicode="&#58940;" d="M410.770286 609.133714c41.472 0 78.262857-18.870857 101.229714-47.908571 22.674286 28.745143 59.026286 47.542857 99.986286 47.908571h172.251428c2.925714 0 5.412571-2.194286 5.485715-4.973714v-392.045714c0-2.779429-2.340571-5.046857-5.266286-5.12H587.922286c-26.331429 0-47.908571-18.505143-50.980572-42.349715l-0.073143-0.731428a5.851429 5.851429 0 0 0-5.997714-5.12h-37.741714a5.851429 5.851429 0 0 0-5.924572 4.973714v0.146286c-2.706286 23.917714-24.137143 42.715429-50.322285 43.081143H239.762286c-2.925714 0-5.412571 2.194286-5.485715 4.973714v392.045714c0 2.779429 2.340571 5.046857 5.266286 5.12h171.154286z m1.682285-90.258285h-85.577142v-221.403429h102.619428c12.141714 0 23.552-3.218286 33.426286-8.777143l0.365714-0.292571 0.731429-0.365715V468.260571a51.419429 51.419429 0 0 1-49.883429 50.468572h-1.682286z m284.672 0h-87.771428a52.297143 52.297143 0 0 1-52.809143-50.761143v-181.248l0.731429 0.438857a70.070857 70.070857 0 0 0 33.060571 9.069714h106.788571V518.8754289999999zM512 896a512 512 0 1 0 0-1024A512 512 0 0 0 512 896z m0-82.285714a429.714286 429.714286 0 1 1 0-859.428572 429.714286 429.714286 0 0 1 0 859.428572z"  horiz-adv-x="1024" />
      
      <glyph glyph-name="search" unicode="&#58939;" d="M473.161143 842.313143a417.133714 417.133714 0 0 0 322.267428-682.057143l168.96-169.325714a9.142857 9.142857 0 0 0 0-12.873143l-45.348571-45.202286a9.142857 9.142857 0 0 0-12.873143 0l-169.033143 169.325714A417.133714 417.133714 0 1 0 473.088 842.386286z m0-82.285714a334.848 334.848 0 1 1 0-669.769143 334.848 334.848 0 0 1 0 669.769143z"  horiz-adv-x="1024" />
      
      <glyph glyph-name="error" unicode="&#58938;" d="M512 834a450 450 0 1 0 0-900A450 450 0 0 0 512 834zM401.17142832 562.97142832a8.03571416 8.03571416 0 0 1-11.12142832 0.19285752l-0.19285752-0.19285752-56.8285708-56.8285708a8.03571416 8.03571416 0 0 1-0.19285752-11.1214292l0.19285752-0.19285665L443.79285752 384 333.02857168 273.17142832a8.03571416 8.03571416 0 0 1-0.19285752-11.12142832l0.19285752-0.19285752 56.8285708-56.8285708a8.03571416 8.03571416 0 0 1 11.1214292-0.19285752l0.19285665 0.19285752L512 315.79285752l110.82857168-110.76428584a8.03571416 8.03571416 0 0 1 11.12142832-0.19285752l0.19285752 0.19285751 56.8285708 56.82857081a8.03571416 8.03571416 0 0 1 0.19285752 11.1214292l-0.19285752 0.19285664L580.20714248 384l110.76428584 110.82857168a8.03571416 8.03571416 0 0 1 0.19285752 11.12142832L690.97142832 506.14285752 634.14285752 562.97142832a8.03571416 8.03571416 0 0 1-11.1214292 0.19285752l-0.19285665-0.19285752L512 452.20714248 401.17142832 562.97142832z"  horiz-adv-x="1024" />
      
      <glyph glyph-name="success" unicode="&#58937;" d="M512 834a450 450 0 1 0 0-900A450 450 0 0 0 512 834z m183.53571416-277.90714248a8.03571416 8.03571416 0 0 1-11.12142832 0.19285664l-0.19285752-0.19285664-243.32142832-242.93571504a8.03571416 8.03571416 0 0 0-11.18571416-0.19285664l-0.19285752 0.19285664L339.71428584 402.70714248a8.03571416 8.03571416 0 0 1-11.12142832 0.19285752l-0.19285752-0.19285752-56.76428584-56.89285664a8.03571416 8.03571416 0 0 1-0.19285664-11.12142832l0.19285664-0.19285752 157.82142832-157.62857167a8.03571416 8.03571416 0 0 1 11.1214292-0.19285665l0.25714248 0.19285664 311.4 310.95a8.03571416 8.03571416 0 0 1 0.25714336 11.18571416l-0.25714336 0.19285752-56.76428584 56.89285752z"  horiz-adv-x="1024" />
      
      <glyph glyph-name="warning" unicode="&#58936;" d="M512 834a450 450 0 1 0 0-900A450 450 0 0 0 512 834z m40.17857168-606.72857168h-80.35714336a8.03571416 8.03571416 0 0 1-8.03571416-7.97142832v-80.35714248c0-4.5 3.6-8.1 8.03571416-8.1h80.35714336a8.03571416 8.03571416 0 0 1 8.03571416 8.1v80.35714248a8.03571416 8.03571416 0 0 1-8.03571416 7.97142832z m0 409.88571416h-80.35714336a8.03571416 8.03571416 0 0 1-8.03571416-8.1v-333.45c0-4.43571416 3.6-8.03571416 8.03571416-8.03571416h80.35714336a8.03571416 8.03571416 0 0 1 8.03571416 8.03571416V629.12142832a8.03571416 8.03571416 0 0 1-8.03571416 7.9714292z"  horiz-adv-x="1024" />
      
      <glyph glyph-name="d-caret" unicode="&#58933;" d="M289.024 472.64l218.112 217.344a6.848 6.848 0 0 0 9.728 0l218.112-217.344a6.784 6.784 0 0 0-4.8-11.648H293.76a6.848 6.848 0 0 0-4.8 11.648zM289.024 295.36l218.112-217.344c2.688-2.688 7.04-2.688 9.728 0l218.112 217.344a6.784 6.784 0 0 1-4.8 11.648H293.76a6.848 6.848 0 0 1-4.8-11.648z"  horiz-adv-x="1024" />
      
      <glyph glyph-name="bell" unicode="&#58932;" d="M391.168 27.062857000000008c25.307429-44.251429 71.753143-71.460571 122.002286-71.460571 49.664 0 95.744 26.624 121.197714 70.217143a1.536 1.536 0 0 0 2.121143 0.512l70.070857-40.082286a222.939429 222.939429 0 0 0-193.389714-112.932572 222.939429 222.939429 0 0 0-192.292572 110.884572 2.413714 2.413714 0 0 0 0.731429 3.145143l0.219428 0.146285 69.339429 39.643429zM512 896a379.318857 379.318857 0 0 0 379.392-373.028571v-348.086858H950.857143c5.046857 0 9.142857-4.096 9.142857-9.142857v-64a9.142857 9.142857 0 0 0-9.142857-9.142857H74.313143a9.142857 9.142857 0 0 0-9.142857 9.142857v64c0 5.046857 4.096 9.142857 9.142857 9.142857h58.221714V516.754286A379.318857 379.318857 0 0 0 512 896z m0-82.285714a297.033143 297.033143 0 0 1-297.106286-292.059429V174.88457100000005h594.212572V516.754286A297.033143 297.033143 0 0 1 512 813.714286z"  horiz-adv-x="1024" />
      
      <glyph glyph-name="date" unicode="&#58931;" d="M231.68791049 818.4283035v-72.49414322a10.35630617 10.35630617 0 0 0-10.35630618-10.35630617h-60.81222986v-204.64060997h849.21710619v204.64060997h-60.81222987a10.35630617 10.35630617 0 0 0-10.35630615 10.35630617v72.49414322c0 5.71668101 4.63962516 10.35630617 10.35630615 10.35630616h143.66267924c5.71668101 0 10.35630617-4.63962516 10.35630618-10.35630616v-926.9308277a10.35630617 10.35630617 0 0 0-10.35630618-10.35630617H77.66892508a10.35630617 10.35630617 0 0 0-10.35630618 10.35630617V818.4283035c0 5.71668101 4.63962516 10.35630617 10.35630618 10.35630616h143.66267923c5.79953147 0 10.35630617-4.63962516 10.35630618-10.35630616z m778.04857015-370.34150874H160.51937445v-473.73886958h849.21710619V448.1696452z m-218.72518637-183.76229673v-62.13783704a10.35630617 10.35630617 0 0 0-10.43915663-10.35630617H389.68371744a10.35630617 10.35630617 0 0 0-10.35630615 10.35630617v62.13783704c0 5.79953147 4.63962516 10.35630617 10.35630615 10.35630616h390.8884202c5.79953147 0 10.35630617-4.63962516 10.35630618-10.35630616z m-396.19084896 630.49191979v-225.35322231a10.35630617 10.35630617 0 0 0-10.35630617-10.27345573h-72.49414321a10.35630617 10.35630617 0 0 0-10.35630617 10.35630618V894.73356738c0 5.79953147 4.63962516 10.43915662 10.35630617 10.43915663h72.49414321c5.79953147 0 10.35630617-4.63962516 10.35630617-10.35630619z m475.06447676 0v-225.35322231a10.35630617 10.35630617 0 0 0-10.27345571-10.27345573h-72.57699367a10.35630617 10.35630617 0 0 0-10.27345572 10.35630618V894.73356738c0 5.79953147 4.55677472 10.43915662 10.27345572 10.43915663h72.57699367c5.71668101 0 10.27345573-4.63962516 10.27345571-10.35630619z m-166.9436555-76.38811432v-72.49414322a10.35630617 10.35630617 0 0 0-10.35630616-10.35630617H477.67089469a10.35630617 10.35630617 0 0 0-10.35630616 10.35630617v72.49414322c0 5.71668101 4.63962516 10.35630617 10.35630616 10.35630616h214.91406572c5.71668101 0 10.35630617-4.63962516 10.35630616-10.35630616z"  horiz-adv-x="1170" />
      
      <glyph glyph-name="arrow-down" unicode="&#58930;" d="M742.336 535.6800000000001l39.552-39.552a8 8 0 0 0 0-11.328l-251.712-251.712a8 8 0 0 0-11.328 0L267.136 484.8a8 8 0 0 0 0 11.328l39.616 39.616a8 8 0 0 0 11.264 0l206.528-206.464 206.464 206.464a8 8 0 0 0 11.072 0.192l0.256-0.192z"  horiz-adv-x="1024" />
      
      <glyph glyph-name="more" unicode="&#58929;" d="M272 392a56 56 0 1 0-112 0 56 56 0 0 0 112 0zM568 392a56 56 0 1 0-112 0 56 56 0 0 0 112 0zM864 392a56 56 0 1 0-112 0 56 56 0 0 0 112 0z"  horiz-adv-x="1024" />
      
      <glyph glyph-name="close" unicode="&#58926;" d="M838.35574318 669.38360572a15.44952368 15.44952368 0 0 0 0-21.81472731L574.78686547 384l263.5688777-263.56887841a15.44952368 15.44952368 0 0 0 1e-8-21.81472731l-40.97213746-40.97213746a15.44952368 15.44952368 0 0 0-21.81472731 0L512 321.21313453000005l-263.56887841-263.5688777a15.44952368 15.44952368 0 0 0-21.81472731-1e-8l-40.97213746 40.97213746a15.44952368 15.44952368 0 0 0 0 21.81472731L449.21313453 384 185.64425682 647.56887841a15.44952368 15.44952368 0 0 0 0 21.81472731l40.97213746 40.97213746a15.44952368 15.44952368 0 0 0 21.81472731 0L512 446.78686547 775.56887841 710.35574318a15.44952368 15.44952368 0 0 0 21.81472731 0l40.97213746-40.97213746z"  horiz-adv-x="1024" />
      
      <glyph glyph-name="lock" unicode="&#58925;" d="M642.69714313 832.80761864c79.68 0 144.41142844-63.90857156 145.71428531-143.31428531v-228.41142844h93.25714312c4.73142844 0 8.57142844-3.84 8.57142844-8.57142844v-505.71428625a8.57142844 8.57142844 0 0 0-8.57142844-8.64H142.33142844a8.57142844 8.57142844 0 0 0-8.57142844 8.64V452.37333333c0 4.8 3.84 8.57142844 8.57142844 8.57142844h93.25714312V687.16190489c0 79.68 63.90857156 144.41142844 143.31428531 145.71428531h263.79428625z m170.4-448.86857062H210.90285687v-368.57142938h602.19428625V383.80190488999995zM512 328.12190489a60 60 0 0 0 36.41142844-107.65714312v-149.48571375a1.09714312 1.09714312 0 0 0-1.02857157-1.09714313h-66.51428531a1.09714312 1.09714312 0 0 0-1.02857156 1.09714313V217.51619019999998A59.93142844 59.93142844 0 0 0 512 328.19047646z m130.69714313 427.47428531H381.30285687a68.57142844 68.57142844 0 0 1-68.57142843-67.40571375V461.08190489h398.53714312V687.0247617699999a68.57142844 68.57142844 0 0 1-66.30857156 68.57142844h-2.26285688z"  horiz-adv-x="1024" />
      
      <glyph glyph-name="download" unicode="&#58924;" d="M600.64370092 32.0404575l237.67722666 237.67722666a9.70903703 9.70903703 0 0 1 0 13.74799644l-48.00147912 48.07915141a9.70903703 9.70903703 0 0 1-13.74799643 0l-139.03341038-139.03341036V868.8041055a9.70903703 9.70903703 0 0 1-9.78670932 9.70903703H559.78807306a9.70903703 9.70903703 0 0 1-9.70903703-9.70903703v-676.44802845l-139.03341038 139.11108266a9.70903703 9.70903703 0 0 1-13.74799643 0l-48.07915142-48.0791514a9.70903703 9.70903703 0 0 1 0-13.67032415l237.67722667-237.67722666a9.70903703 9.70903703 0 0 1 13.74799645 0z m467.04351763-123.34360652a9.70903703 9.70903703 0 0 1 9.70903703 9.70903703v67.96325926a9.70903703 9.70903703 0 0 1-9.70903703 9.70903704H119.15313616a9.70903703 9.70903703 0 0 1-9.70903702-9.70903704v-67.96325926c0-5.43706075 4.34964859-9.70903703 9.70903702-9.70903703H1067.76489084z"  horiz-adv-x="1170" />
      
      <glyph glyph-name="user" unicode="&#58923;" d="M512 829.732571a268.580571 268.580571 0 0 0 156.964571-486.546285l9.728-4.315429a400.603429 400.603429 0 0 0 234.422858-359.862857v-31.597714a9.142857 9.142857 0 0 0-9.142858-9.142857h-64a9.142857 9.142857 0 0 0-9.142857 9.142857v26.843428a318.317714 318.317714 0 0 1-636.489143 5.266286v-32.109714a9.142857 9.142857 0 0 0-9.216-9.142857H121.124571a9.142857 9.142857 0 0 0-9.142857 9.142857v26.843428a400.676571 400.676571 0 0 0 243.492572 368.64A268.580571 268.580571 0 0 0 512 829.732571z m0-82.285714a186.294857 186.294857 0 1 1 0-372.516571 186.294857 186.294857 0 0 1 0 372.516571z"  horiz-adv-x="1024" />
      
      <glyph glyph-name="arrow-right" unicode="&#58922;" d="M335.04 162.49599999999998l39.552-39.616a8 8 0 0 1 11.328 0l251.712 251.712a8 8 0 0 1 0 11.328L385.92 637.6320000000001a8 8 0 0 1-11.328 0l-39.552-39.552a8 8 0 0 1 0-11.328L541.44 380.288l-206.464-206.464a8 8 0 0 1-0.192-11.136l0.192-0.192z"  horiz-adv-x="1024" />
      
      <glyph glyph-name="arrow-left" unicode="&#58921;" d="M688.96 162.49599999999998l-39.552-39.616a8 8 0 0 0-11.328 0L386.368 374.592a8 8 0 0 0 0 11.328L638.08 637.6320000000001a8 8 0 0 0 11.328 0l39.552-39.552a8 8 0 0 0 0-11.328L482.56 380.288l206.464-206.464a8 8 0 0 0 0.192-11.136l-0.192-0.192z"  horiz-adv-x="1024" />
      
      <glyph glyph-name="minus" unicode="&#58919;" d="M852.992 419.968c4.48 0 8-3.52 8-8v-56a8 8 0 0 0-8-7.936H171.008a8 8 0 0 0-8 7.936v56.064c0 4.416 3.584 8 8 8h681.984z"  horiz-adv-x="1024" />
      
      <glyph glyph-name="plus" unicode="&#58917;" d="M542.796875 767.41406277c4.8515625 0 8.78906277-3.93750027 8.78906277-8.78906277v-335.10937527h335.03906223c4.92187473 0 8.78906277-3.86718723 8.78906277-8.78906196v-61.52343777a8.78906277 8.78906277 0 0 0-8.78906277-8.78906277H551.51562473v-335.03906223a8.78906277 8.78906277 0 0 0-8.78906196-8.78906277h-61.52343777a8.78906277 8.78906277 0 0 0-8.78906277 8.78906277V344.41406223H137.375a8.78906277 8.78906277 0 0 0-8.78906277 8.78906277v61.52343777c0 4.92187473 3.93750027 8.78906277 8.78906277 8.78906196h335.10937527V758.69531223c0 4.92187473 3.86718723 8.78906277 8.78906196 8.78906277h61.52343777z"  horiz-adv-x="1024" />
      
      <glyph glyph-name="edit" unicode="&#58916;" d="M930.97142844 17.955555559999993c4.66285688 0 8.50285687-3.77142844 8.50285687-8.50285687v-60a8.57142844 8.57142844 0 0 0-8.57142844-8.57142844H93.09714313a8.57142844 8.57142844 0 0 0-8.57142844 8.57142844v60c0 4.73142844 3.84 8.57142844 8.57142843 8.57142843h837.80571375zM655.17714312 825.726984l0.20571375-0.27428531 236.36571469-236.36571469a8.57142844 8.57142844 0 0 0 0.20571375-11.93142844l-0.20571375-0.20571469-507.42857156-507.42857062a8.57142844 8.57142844 0 0 0-5.89714313-2.53714313h-0.34285687l-233.28 3.08571375a8.57142844 8.57142844 0 0 0-8.43428531 8.22857157v0.20571468l-3.08571469 233.28c0 2.26285688 0.75428531 4.38857156 2.26285687 5.96571375l0.27428625 0.27428625 507.42857157 507.42857157a8.57142844 8.57142844 0 0 0 11.93142843 0.20571375zM521.32571469 594.29841244L210.83428531 283.87555555999995l1.85142938-137.55428531 137.55428531-1.78285781L660.8 454.96127025 521.32571469 594.366984z m128.02285687 128.02285781l-79.54285687-79.54285781L709.21142844 503.44127025l79.54285687 79.54285687-139.40571375 139.40571375z"  horiz-adv-x="1024" />
      
      <glyph glyph-name="folder" unicode="&#58914;" d="M531.27500029 792.825l175.34999971-162.74999971h236.62500029c5.175 0 9.37500029-4.20000029 9.37499942-9.37500029v-639.82500029a9.37500029 9.37500029 0 0 0-9.37499942-9.37499942H80.74999971a9.37500029 9.37500029 0 0 0-9.37499942 9.37499942V785.92499971C71.37500029 791.25 75.57499971 795.3 80.74999971 795.3h444.15c2.32499971 0 4.65000029-0.9 6.37500058-2.475z m336.97499942-247.12499971h-712.49999942v-489.825h712.49999942V545.7000002899999zM495.50000029 710.99999971H155.75000029v-80.84999971h426.825L495.50000029 710.99999971z"  horiz-adv-x="1024" />
      
      <glyph glyph-name="rank" unicode="&#58913;" d="M517.59285752 827.82857168L648.28571416 697.07142832a8.03571416 8.03571416 0 0 0 0-11.3785708l-39.79285664-39.79285752a8.03571416 8.03571416 0 0 0-11.1214292-0.19285752l-0.19285664 0.19285752-49.11428584 49.11428584v-275.33571416h275.33571416l-49.05 49.05a8.03571416 8.03571416 0 0 0-0.19285752 11.18571416l0.19285752 0.19285664 39.72857168 39.79285752a8.03571416 8.03571416 0 0 0 11.3785708 0l130.69285752-130.69285752a8.03571416 8.03571416 0 0 0 0-11.3785708l-130.69285752-130.69285752a8.03571416 8.03571416 0 0 0-11.3785708 0l-39.72857168 39.79285752a8.03571416 8.03571416 0 0 0 0 11.3785708l49.05 49.05H548.06428584v-275.33571416l49.11428584 49.05a8.03571416 8.03571416 0 0 0 11.12142832 0.25714336l0.19285752-0.25714336 39.85714248-39.7285708a8.03571416 8.03571416 0 0 0 0-11.37857168l-130.75714248-130.69285752a8.03571416 8.03571416 0 0 0-11.37857168 0l-130.69285751 130.69285752a8.03571416 8.03571416 0 0 0-1e-8 11.37857168l39.85714336 39.7285708a8.03571416 8.03571416 0 0 0 11.31428584 0l49.05-49.05V347.42142833H200.40714248l49.11428584-49.05a8.03571416 8.03571416 0 0 0 0.19285752-11.18571417l-0.19285752-0.19285664-39.79285664-39.79285752a8.03571416 8.03571416 0 0 0-11.37857168 0L67.65714248 377.89285752a8.03571416 8.03571416 0 0 0 0 11.37857081l130.69285752 130.69285751a8.03571416 8.03571416 0 0 0 11.37857168 0l39.79285664-39.79285752a8.03571416 8.03571416 0 0 0 0.19285752-11.18571416l-0.19285752-0.19285664-49.11428584-49.05h275.33571504V695.07857168l-49.05-49.11428584a8.03571416 8.03571416 0 0 0-11.18571504-0.19285751l-0.19285664 0.19285751-39.79285752 39.85714249a8.03571416 8.03571416 0 0 0 0 11.31428583L506.21428584 827.82857168a8.03571416 8.03571416 0 0 0 11.37857168 0z"  horiz-adv-x="1024" />
      
      <glyph glyph-name="tip" unicode="&#58912;" d="M583.8391091 901.22395546a512.64675231 512.64675231 0 1 0 0-1025.29350462A512.64675231 512.64675231 0 0 0 583.8391091 901.22395546z m0-82.38965662a430.25709569 430.25709569 0 1 1 0-860.51419138 430.25709569 430.25709569 0 0 1 0 860.51419138z m40.27938769-304.36570036c14.13440333 0 24.89998512-2.92941003 32.80939212-9.3008768a33.68821517 33.68821517 0 0 0 12.66969835-27.31674836c0-12.5232278-12.88940403-60.12614052-37.86262444-140.90462164l-4.76029127-15.67234357c-36.47115467-120.83816303-42.25673944-146.1043244-42.25673943-171.15078002 0-4.02793879 0.80558775-6.95734877 2.41676326-8.78823004 1.68441075-1.97735175 2.70970428-2.63646901 3.14911575-2.63646904 9.52058256 0 40.93850495 23.21557436 89.49347589 67.74260658l10.03322931-0.14647052 22.33675134-21.67763411-0.1464705-10.61911128-3.22235101-2.92941001c-52.07026299-47.74938322-88.83435866-77.33642435-113.14846176-90.6652399l-1.90411648-1.02529351c-24.38733835-13.47528606-44.6735027-20.35939958-60.93172829-20.35939957a50.75202848 50.75202848 0 0 0-37.64291869 14.64705004c-9.0079358 9.74028831-13.69499181 23.28880961-13.69499181 39.54703518 0 48.18879474 15.52587306 111.75699201 73.52819134 294.3324711a65.47231379 65.47231379 0 0 1 3.66176252 20.50587007l1e-8 0.73235251c0 2.92941002-0.36617624 3.07588052-3.14911577 3.07588052a47.09026596 47.09026596 0 0 1-22.7029276-7.76293655l-0.51264676-0.29294099c-9.08117106-5.56587902-29.0743944-23.21557435-63.86113829-56.09820174l-9.52058253-0.51264676-25.19292612 19.33410608-0.95205825 10.76558179 2.41676326 2.56323376c38.44850643 41.01174017 72.79583882 69.79319356 104.43346696 87.36965365 32.66292164 18.08910684 60.78525777 27.24351311 84.51347889 27.24351313z m58.95437652 180.7445978a47.60291269 47.60291269 0 0 0 34.49380289-13.8414623c9.15440628-9.15440628 13.91469757-21.01851683 13.91469757-35.29939067a73.96760282 73.96760282 0 0 0-20.13969384-47.96908896c-12.88940405-14.20763855-27.68292462-21.23822258-44.6735027-21.23822259a46.28467819 46.28467819 0 0 0-33.98115616 13.91469756 49.65349972 49.65349972 0 0 0-13.91469754 36.25144891c0 19.04116507 6.22499627 34.85997915 19.04116506 48.33526523a60.78525777 60.78525777 0 0 0 45.25938472 19.84675282z"  horiz-adv-x="1170" />
      
      <glyph glyph-name="s-tools" unicode="&#58911;" d="M585.99148936 834.38297872c3.61094212 0 6.8279634-2.36352596 7.87841958-5.90881446v-0.19696086l28.55927065-110.9544068 46.94224937-19.4334349 98.61154976 58.30030383a8.2066868 8.2066868 0 0 0 9.8480247-1.11610891l0.13130635-0.19696088 104.78297874-104.71732509c2.56048594-2.62613957 3.08571404-6.5653498 1.37872339-9.71671746l-0.13130635-0.2626136-58.30030472-98.67720428 19.43343491-46.87659575 110.95440768-28.55927064a8.2066868 8.2066868 0 0 0 6.17142807-7.68145871v-148.37689957a8.2066868 8.2066868 0 0 0-5.90881448-7.87841958h-0.26261359l-110.95440768-28.55927065-19.43343491-46.94224937 58.30030472-98.61154976a8.2066868 8.2066868 0 0 0-1.05045618-9.8480247l-0.19696086-0.13130635-104.78297873-104.78297873c-2.56048594-2.56048594-6.5653498-3.08571404-9.71671746-1.3787234l-0.2626136 0.13130635-98.61154976 58.30030472-46.94224937-19.43343491-28.49361702-110.95440768a8.2066868 8.2066868 0 0 0-7.68145961-6.17142806H437.81154977a8.2066868 8.2066868 0 0 0-7.87841869 5.90881447l-0.06565362 0.26261359-28.55927064 110.95440768-46.87659575 19.43343491-98.67720339-58.30030472a8.2066868 8.2066868 0 0 0-9.78237108 1.05045618l-0.19696086 0.19696087L141.05775063 118.10334384999999a8.2066868 8.2066868 0 0 0-1.44437703 9.71671656l0.13130725 0.26261449 58.30030382 98.61154977-19.36778128 46.94224937-110.95440678 28.49361702a8.2066868 8.2066868 0 0 0-6.23708258 7.68145871V458.18845023c0 3.67659574 2.42917959 6.89361702 5.90881446 7.87841869l0.2626145 0.06565362 110.95440678 28.55927064 19.4334349 46.87659575-58.30030382 98.67720339a8.2066868 8.2066868 0 0 0 1.11610981 9.78237108l0.19695997 0.19696086L245.84072935 754.94224937c2.62613957 2.62613957 6.5653498 3.15136765 9.71671746 1.44437703l0.2626136-0.13130725L354.43161107 697.82370808l46.87659575 19.36778128 28.55927063 110.95440768a8.2066868 8.2066868 0 0 0 7.68145872 6.23708168h148.37689957z m-44.5787234-65.65349531H482.45592679l-24.55440678-95.59148936a8.2066868 8.2066868 0 0 0-4.59574468-5.38358637l-0.26261448-0.13130725-99.85896594-41.36170213a8.2066868 8.2066868 0 0 0-7.09057789 0.32826723l-0.2626136 0.13130724-85.02127659 50.22492427-41.68997024-41.68997025 50.22492426-85.02127659c1.24741616-2.1665651 1.44437703-4.72705193 0.65653534-7.02492337l-0.19696087-0.32826812L228.37689957 443.08814551a8.2066868 8.2066868 0 0 0-5.25227912-4.72705104l-0.2626145-0.13130724-95.65714298-24.55440768v-59.08814551l95.65714298-24.55440768c2.36352596-0.65653534 4.39878381-2.29787234 5.38358637-4.53009105l0.13130725-0.2626136 41.36170213-99.92462045a8.2066868 8.2066868 0 0 0-0.32826723-7.02492337l-0.13130724-0.26261449-50.22492427-85.0212766 41.68997025-41.75562297 85.02127659 50.22492427a8.2066868 8.2066868 0 0 0 7.02492337 0.65653444l0.32826812-0.13130635 99.85896592-41.36170213a8.2066868 8.2066868 0 0 0 4.72705193-5.25228002l0.13130725-0.26261359 24.55440678-95.65714299h59.08814641l24.55440678 95.65714299a8.2066868 8.2066868 0 0 0 4.53009196 5.38358637l0.26261359 0.13130724 99.92462045 41.36170213a8.2066868 8.2066868 0 0 0 7.02492337-0.32826812l0.2626145-0.19695997 85.02127659-50.22492427 41.75562297 41.75562297-50.22492426 85.0212766a8.2066868 8.2066868 0 0 0-0.65653445 7.02492427l0.13130635 0.26261359 41.36170213 99.92462045a8.2066868 8.2066868 0 0 0 5.25228002 4.72705193l0.2626136 0.06565272 95.65714298 24.62006131V413.54407321l-95.65714298 24.55440678a8.2066868 8.2066868 0 0 0-5.38358637 4.59574468l-0.13130725 0.26261448-41.36170213 99.85896594a8.2066868 8.2066868 0 0 0 0.32826812 7.09057789l0.19695998 0.2626136 50.22492426 85.02127659-41.75562297 41.68997024-85.02127659-50.22492426a8.2066868 8.2066868 0 0 0-7.02492427-0.65653534l-0.2626136 0.19696087-99.92462045 41.36170213a8.2066868 8.2066868 0 0 0-4.72705192 5.25228002l-0.06565363 0.2626136-24.6200604 95.65714298zM512 527.64984764a143.64984764 143.64984764 0 1 0 0-287.23404255 143.64984764 143.64984764 0 0 0 0 287.29969617z m0-65.65349531a77.99635233 77.99635233 0 1 1 0-155.92705103 77.99635233 77.99635233 0 0 1 0 155.99270465z"  horiz-adv-x="1024" />
      
      <glyph glyph-name="refresh" unicode="&#58910;" d="M724.47499971 736.4249997100001h214.27500058c5.175 0 9.37500029-4.20000029 9.37499942-9.37499942v-56.25a9.37500029 9.37500029 0 0 0-9.37499942-9.37500029h-90.225A436.20000029 436.20000029 0 0 0 527.00000029-51.60000000000002l-3.825-0.07499971-2.25-0.07500058a9.37500029 9.37500029 0 0 0-9.52500058 9.225v65.77500058c0 5.10000029 4.05 9.29999971 9.15000029 9.37499942h1.87499971l1.27500029 0.07500058a351.675 351.675 0 0 1 266.24999971 566.69999942v-86.69999971a9.37500029 9.37500029 0 0 0-9.29999971-9.37500029h-56.25a9.37500029 9.37500029 0 0 0-9.37500029 9.37500029V727.0500002900001c0 5.175 4.12499971 9.37500029 9.37500029 9.37499942z m-520.72499971-43.49999971a434.99999971 434.99999971 0 0 0 294.37499971 127.50000029l3.30000029 0.14999942h1.19999971a9.37500029 9.37500029 0 0 0 9.52500058-9.225v-65.77499971a9.37500029 9.37500029 0 0 0-9.15000029-9.37500029h-1.50000029a351.74999971 351.74999971 0 0 1-267.525-567.14999942V254.10000029000003c0 5.24999971 4.12499971 9.37500029 9.30000058 9.37499942h56.25c5.24999971 0 9.37500029-4.20000029 9.37499942-9.37499942v-214.27500058a9.37500029 9.37500029 0 0 0-9.37499942-9.37499942H85.24999971a9.37500029 9.37500029 0 0 0-9.37499942 9.37499942v56.25c0 5.02499971 4.05 9.15000029 9 9.37500029h91.94999942a436.12499971 436.12499971 0 0 0 27 587.40000029z"  horiz-adv-x="1024" />
      
      <glyph glyph-name="copy-document" unicode="&#58909;" d="M958.902857 612.5714290000001c4.900571 0 8.923429-3.949714 9.069714-8.850286V-62.90285700000004a9.142857 9.142857 0 0 0-8.777142-9.069714H365.714286a9.142857 9.142857 0 0 0-9.142857 8.777142V603.4285709999999c0 4.973714 3.949714 8.996571 8.850285 9.142858H958.902857zM885.76 530.285714H438.857143v-520.045714h446.902857V530.285714zM658.285714 839.972571c5.046857 0 9.142857-4.096 9.142857-9.142857v-139.117714A9.142857 9.142857 0 0 0 658.285714 682.5691429999999h-64A9.142857 9.142857 0 0 0 585.142857 691.712v65.974857H138.24V237.71428600000002h139.190857c5.046857 0 9.142857-4.096 9.142857-9.142857V164.57142899999997a9.142857 9.142857 0 0 0-9.142857-9.142858H65.170286A9.142857 9.142857 0 0 0 56.027429 164.57142899999997V830.902857C56.027429 835.803429 60.123429 839.899429 65.097143 839.899429H658.285714z"  horiz-adv-x="1024" />
      
    </font>
</defs>
</svg>
