<?xml version="1.0" encoding="UTF-8"?>
<svg width="101px" height="45px" viewBox="0 0 101 45" version="1.1" xmlns="http://www.w3.org/2000/svg" xmlns:xlink="http://www.w3.org/1999/xlink">
    <title>编组 3</title>
    <defs>
        <rect id="path-1" x="0" y="0" width="45" height="45"></rect>
        <path d="M13.8099758,0 C15.8926303,0 17.8576242,0.956919857 19.1300485,2.5908448 L20.3783636,4.19354067 L26.6784606,12.3641278 C26.3287758,11.7933016 26.3201212,11.0403843 26.7934424,10.2311318 C27.3924606,9.20696194 28.7722424,8.46608575 29.9340121,8.12260704 L29.9929455,8.10546689 L30.0875273,8.07917305 C30.2313576,8.04038758 30.3708606,8.00797079 30.5041818,7.9821889 L30.6049455,7.96371767 L30.7118909,7.94569697 L30.7967879,7.93234527 L30.8806545,7.91995603 L30.963903,7.90857022 L31.0463273,7.89816736 L31.1279273,7.88880888 L31.208703,7.88045383 L31.2884485,7.87316364 L31.3673697,7.86691782 L31.4450545,7.86177783 L31.5027515,7.8586242 L31.5600364,7.85608492 L31.6352485,7.85368899 C31.7098424,7.85186644 31.7827879,7.85172309 31.8540848,7.85336134 L31.9245576,7.85559345 L31.9937939,7.85901329 L32.028,7.86116349 L32.062,7.86364133 L32.1285576,7.86947758 L32.1938788,7.876563 L32.2579636,7.88491805 C32.8376121,7.96719895 33.2375758,8.20953646 33.3360727,8.66517357 C33.8736848,8.06674286 34.2246061,6.82593548 33.7354182,6.07668376 C33.4803152,5.68594165 32.9987515,5.41006106 32.4982303,5.20011986 L32.446303,5.17863836 L32.3548121,5.14183926 L32.3088606,5.12394143 L32.2173697,5.08914918 L32.1262909,5.05562658 L32.0809576,5.03932603 L31.9911152,5.00756454 L31.902303,4.97690887 L31.7720727,4.93281957 L31.4856485,4.83773988 C31.1996364,4.51803621 30.702,4.2587019 30.0481697,4.04130668 L29.9311273,4.00336081 L29.8109939,3.96627502 L29.6877697,3.93000836 L29.5614545,3.89456081 L29.4971636,3.8771135 L29.4971636,3.8771135 L29.3663152,3.8428332 L29.2327879,3.80926964 L29.1649939,3.79276431 L29.0271394,3.76030657 L28.8866061,3.72850412 L28.7436,3.69739793 L28.6710667,3.68208033 L28.5025091,3.64757478 C28.4079273,3.62863256 28.311903,3.61005895 28.2144364,3.59183347 L28.0673091,3.56474097 L27.8878303,3.53287709 L27.7971636,3.51721137 L27.6135636,3.48635091 L27.3331152,3.44123772 L27.0949091,3.4046434 L26.8532,3.36888869 L26.6570303,3.34083373 L26.4588,3.31322929 L26.258303,3.28607536 L26.0559515,3.25929004 L25.7489212,3.21978784 L25.333503,3.16816262 L25.1781333,3.1495071 L25.8344364,2.30689584 L25.942,2.17040949 L26.0481212,2.03765014 L26.1181818,1.9512122 L26.1880364,1.86647393 L26.2861212,1.74987179 L26.3434061,1.68362522 L26.4006909,1.61854591 L26.4581818,1.55461336 L26.5160848,1.49186855 L26.5741939,1.43031146 L26.6329212,1.3699421 L26.6920606,1.31076047 L26.7219394,1.28162018 L26.7821091,1.2242611 L26.842897,1.16811022 L26.9047152,1.11318803 L26.9673576,1.05947404 L27.0310303,1.00700922 L27.0957333,0.955793563 C27.1066545,0.947356597 27.1175758,0.938960587 27.128497,0.93064649 L27.1948485,0.881294335 L27.2626424,0.83321182 C27.8328121,0.437780237 28.5449576,0.174473179 29.6127636,0.0619871259 L29.7427879,0.0492088086 C29.7864727,0.0451951063 29.8309818,0.0414066629 29.8761091,0.0378844344 L30.0129333,0.0280344815 L30.1536727,0.0196384717 C30.1773697,0.0183688312 30.2012727,0.0171606249 30.2253818,0.0160138528 L30.3714788,0.00982947487 L30.521697,0.00516047431 L30.6756242,0.00196589497 C30.7277576,0.00116725014 30.780303,0.000593864107 30.8336727,0.000286693017 L30.9332,0 L45.3333333,0 L34.2427394,13.9485982 L30.9622545,18.0780425 L30.9301091,18.1187529 C30.1592364,19.0573859 28.9871636,19.6589497 27.6708485,19.6589497 C26.2247152,19.6589497 24.9514667,18.9348861 24.1946061,17.8331862 L24.1682303,17.794155 L22.5906303,15.8121438 L12.4209212,2.52451632 C11.6805455,1.55711169 10.5278424,0.989131865 9.30487273,0.989131865 L9.2966303,0.989131865 L21.6085455,17.1663587 L21.165103,17.794155 C20.4119515,18.9177459 19.1257212,19.6589497 17.6624848,19.6589497 C16.3680121,19.6589497 15.2132485,19.0772701 14.4419636,18.165402 L14.4040485,18.1197359 L14.3702545,18.078063 L11.0905939,13.9485982 L0,0 L13.8099758,0 Z M26.6053091,4.56034391 L26.8731879,4.58237832 C27.8997818,4.6699016 28.9274061,4.79661991 29.9111394,5.0825962 C29.1973455,6.36083749 27.4171879,5.80577933 26.6053091,4.56034391 Z" id="path-3"></path>
    </defs>
    <g id="控件" stroke="none" stroke-width="1" fill="none" fill-rule="evenodd">
        <g id="顶部一级导航" transform="translate(-24.000000, -6.000000)">
            <g id="编组-3" transform="translate(24.000000, 6.000000)">
                <text id="维鹰云" font-family="TencentSansW7, TencentSans" font-size="16" font-weight="bold" fill="#333">
                    <tspan x="53" y="27">维鹰云</tspan>
                </text>
                <g id="logo">
                    <mask id="mask-2" fill="white">
                        <use xlink:href="#path-1"></use>
                    </mask>
                    <g id="蒙版"></g>
                    <g id="编组" mask="url(#mask-2)">
                        <g transform="translate(0.000000, 12.000000)">
                            <mask id="mask-4" fill="white">
                                <use xlink:href="#path-3"></use>
                            </mask>
                            <g id="Clip-447" stroke="none" fill="none"></g>
                            <polygon id="Fill-446" stroke="none" fill="#0076FF" fill-rule="evenodd" mask="url(#mask-4)" points="-1.03030303 20.6828534 46.3636364 20.6828534 46.3636364 -1.02390363 -1.03030303 -1.02390363"></polygon>
                        </g>
                    </g>
                </g>
            </g>
        </g>
    </g>
</svg>