<svg xmlns="http://www.w3.org/2000/svg" xmlns:xlink="http://www.w3.org/1999/xlink" viewBox="0 0 12 12" class="design-iconfont">
  <defs>
    <path d="M11.3322239,0 L12,0.667706686 L6.667,6 L12,11.3322933 L11.3322239,12 L6,6.667 L0.667776066,12 L0,11.3322933 L5.332,6 L0,0.667706686 L0.667776066,0 L6,5.332 L11.3322239,0 Z M0,0 L1,0 L1,1 L0,1 L0,0 Z M11,0 L12,0 L12,1 L11,1 L11,0 Z M11,11 L12,11 L12,12 L11,12 L11,11 Z M0,11 L1,11 L1,12 L0,12 L0,11 Z" id="zykl8u63ca"/>
  </defs>
  <g fill="none" fill-rule="evenodd">
    <mask id="b72bivd3ib" fill="#fff">
      <use xlink:href="#zykl8u63ca"/>
    </mask>
    <use fill="#000" fill-rule="nonzero" xlink:href="#zykl8u63ca"/>
    <path fill="#2E2F30" mask="url(#b72bivd3ib)" d="M-2 -2H14V14H-2z"/>
  </g>
</svg>
