<?xml version="1.0" encoding="UTF-8"?>
<svg width="116px" height="28px" viewBox="0 0 116 28" version="1.1" xmlns="http://www.w3.org/2000/svg" xmlns:xlink="http://www.w3.org/1999/xlink">
    <title>logo</title>
    <defs>
        <rect id="path-1" x="0" y="0" width="116" height="28"></rect>
        <rect id="path-3" x="0" y="0" width="44" height="44"></rect>
        <path d="M13.4038,0 C15.4252,0 17.3324,0.928775155 18.5674,2.51464348 L19.779,4.07020124 L25.8938,12.000477 C25.5544,11.4464398 25.546,10.7156671 26.0054,9.93021615 C26.5868,8.93616894 27.926,8.21708323 29.0536,7.88370683 L29.1108,7.86707081 L29.2026,7.84155031 C29.3422,7.80390559 29.4776,7.77244224 29.607,7.74741863 L29.7048,7.72949068 L29.8086,7.712 L29.891,7.69904099 L29.9724,7.68701615 L30.0532,7.67596522 L30.1332,7.66586832 L30.2124,7.65678509 L30.2908,7.64867578 L30.3682,7.6416 L30.4448,7.63553789 L30.5202,7.63054907 L30.5762,7.6274882 L30.6318,7.6250236 L30.7048,7.62269814 C30.7772,7.62092919 30.848,7.62079006 30.9172,7.62238012 L30.9856,7.62454658 L31.0528,7.62786584 L31.086,7.6299528 L31.119,7.63235776 L31.1836,7.63802236 L31.247,7.64489938 L31.3092,7.6530087 C31.8718,7.73286957 32.26,7.9680795 32.3556,8.41031553 C32.8774,7.82948571 33.218,6.62517267 32.7432,5.89795776 C32.4956,5.51870807 32.0282,5.25094161 31.5424,5.04717516 L31.492,5.02632547 L31.4032,4.9906087 L31.3586,4.97323727 L31.2698,4.93946832 L31.1814,4.90693168 L31.1374,4.89111056 L31.0502,4.86028323 L30.964,4.83052919 L30.8376,4.78773665 L30.5596,4.69545342 C30.282,4.3851528 29.799,4.13344596 29.1644,3.92244472 L29.0508,3.88561491 L28.9342,3.84961988 L28.8146,3.81441988 L28.692,3.78001491 L28.6296,3.76308075 L28.6296,3.76308075 L28.5026,3.7298087 L28.373,3.6972323 L28.3072,3.68121242 L28.1734,3.64970932 L28.037,3.61884224 L27.8982,3.58865093 L27.8278,3.57378385 L27.6642,3.54029317 C27.5724,3.52190807 27.4792,3.50388075 27.3846,3.4861913 L27.2418,3.45989565 L27.0676,3.42896894 L26.9796,3.41376398 L26.8014,3.38381118 L26.5292,3.34002484 L26.298,3.30450683 L26.0634,3.26980373 L25.873,3.24257391 L25.6806,3.21578137 L25.486,3.18942609 L25.2896,3.16342857 L24.9916,3.1250882 L24.5884,3.07498137 L24.4376,3.05687453 L25.0746,2.23904596 L25.179,2.10657391 L25.282,1.97771925 L25.35,1.8938236 L25.4178,1.81157764 L25.513,1.69840497 L25.5686,1.63410683 L25.6242,1.57094161 L25.68,1.50888944 L25.7362,1.44799006 L25.7926,1.38824348 L25.8496,1.32964969 L25.907,1.2722087 L25.936,1.24392547 L25.9944,1.18825342 L26.0534,1.13375404 L26.1134,1.0804472 L26.1742,1.02831304 L26.236,0.977391304 L26.2988,0.927681988 C26.3094,0.919493168 26.32,0.911344099 26.3306,0.903274534 L26.395,0.855373913 L26.4608,0.80870559 C27.0142,0.424904348 27.7054,0.169341615 28.7418,0.0601639752 L28.868,0.0477614907 C28.9104,0.0438658385 28.9536,0.0401888199 28.9974,0.0367701863 L29.1302,0.0272099379 L29.2668,0.0190608696 C29.2898,0.0178285714 29.313,0.0166559006 29.3364,0.0155428571 L29.4782,0.00954037267 L29.624,0.00500869565 L29.7734,0.00190807453 C29.824,0.00113291925 29.875,0.000576397516 29.9268,0.00027826087 L30.0234,0 L44,0 L33.2356,13.5383453 L30.0516,17.5463354 L30.0204,17.5858484 C29.2722,18.4968745 28.1346,19.0807453 26.857,19.0807453 C25.4534,19.0807453 24.2176,18.3779776 23.483,17.3086807 L23.4574,17.2707975 L21.9262,15.3470807 L12.0556,2.45026584 C11.337,1.51131429 10.2182,0.960039752 9.0312,0.960039752 L9.0232,0.960039752 L20.973,16.6614658 L20.5426,17.2707975 C19.8116,18.3613416 18.5632,19.0807453 17.143,19.0807453 C15.8866,19.0807453 14.7658,18.5161739 14.0172,17.6311255 L13.9804,17.5868025 L13.9476,17.5463553 L10.7644,13.5383453 L0,0 L13.4038,0 Z M25.8228,4.42621615 L26.0828,4.44760248 C27.0792,4.53255155 28.0766,4.65554286 29.0314,4.93310807 C28.3386,6.17375404 26.6108,5.63502112 25.8228,4.42621615 Z" id="path-5"></path>
    </defs>
    <g id="pc端" stroke="none" stroke-width="1" fill="none" fill-rule="evenodd">
        <g id="企业注册-1" transform="translate(-33.000000, -24.000000)">
            <g id="logo" transform="translate(33.000000, 24.000000)">
                <mask id="mask-2" fill="white">
                    <use xlink:href="#path-1"></use>
                </mask>
                <g id="蒙版"></g>
                <path d="M72.7811765,24.9096471 L73.0089412,23.1496471 L69.4475294,23.1496471 L69.8409412,20.1472941 L72.4912941,20.1472941 L72.7397647,18.4287059 L70.048,18.4287059 L70.4207059,15.6748235 L73.1124706,15.6748235 L73.3609412,13.9562353 L70.6484706,13.9562353 L70.9797647,11.368 L74.2098824,11.368 L74.4790588,9.64941176 L71.4145882,9.64941176 C71.2282353,8.57270588 71.0832941,7.43388235 71.0004706,6.27435294 L68.8677647,6.27435294 C68.9712941,7.47529412 69.0955294,8.57270588 69.2197647,9.64941176 L66.5487059,9.64941176 C67.2941176,8.53129412 67.8738824,7.37176471 68.1844706,6.27435294 L65.8861176,6.27435294 C65.4098824,7.86870588 64.3331765,9.608 62.7802353,10.9331765 L60.9788235,10.9331765 C60.7303529,11.3887059 60.4197647,11.9063529 60.0677647,12.4447059 L58.7425882,12.4447059 C59.8607059,10.6847059 61.0616471,8.53129412 62.1797647,6.27435294 L59.7778824,6.27435294 C58.5562353,8.94541176 57.0861176,11.6164706 55.5331765,14.1011765 L58.9289412,14.1011765 C57.6865882,15.8611765 56.1957647,17.7454118 54.8498824,19.2776471 C57.024,19.1327059 59.4672941,18.8635294 61.9312941,18.6564706 L62.2004706,16.9585882 C60.8752941,17.0828235 59.6329412,17.2484706 58.8254118,17.3105882 C60.1712941,15.6955294 61.4757647,13.8941176 62.5938824,12.1962353 L62.4696471,13.7491765 C62.9665882,13.4178824 63.4221176,13.0658824 63.8776471,12.6724706 L62.1797647,24.9096471 L72.7811765,24.9096471 Z M68.4743529,13.9562353 L65.9068235,13.9562353 L66.2588235,11.368 L68.8056471,11.368 L68.4743529,13.9562353 Z M67.8738824,18.4287059 L65.3063529,18.4287059 L65.6790588,15.6748235 L68.2465882,15.6748235 L67.8738824,18.4287059 Z M54.2494118,24.3298824 C56.7962353,23.6465882 58.9703529,22.9011765 61.5378824,21.9072941 L61.8691765,19.8574118 C59.1774118,20.8305882 56.7341176,21.6588235 54.56,22.28 L54.2494118,24.3298824 Z M67.2734118,23.1496471 L64.6851765,23.1496471 L65.0785882,20.1472941 L67.6668235,20.1472941 L67.2734118,23.1496471 Z M77.2329412,24.9096471 C78.1025882,23.0047059 79.0343529,19.5468235 79.4691765,16.3167059 C79.7590588,14.1218824 79.9661176,11.4508235 80.0903529,8.92470588 L88.8696471,8.92470588 C88.9317647,9.17317647 89.0145882,9.44235294 89.0974118,9.69082353 L86.7783529,9.69082353 C86.9025882,9.50447059 87.0268235,9.29741176 87.1096471,9.09035294 L85.2461176,9.09035294 C84.9355294,9.73223529 84.0244706,10.3741176 83.4447059,10.664 L83.1755294,12.5275294 C83.4654118,12.3825882 83.776,12.2169412 84.0865882,12.0305882 L83.5689412,15.2607059 L85.8051765,15.2607059 C85.7016471,15.4677647 85.5981176,15.6955294 85.4738824,15.9025882 L81.7882353,15.9025882 L80.5665882,20.9755294 L91.4371765,20.9755294 C91.8098824,20.9755294 91.872,21.0790588 91.8098824,21.3896471 C91.6649412,22.0729412 91.4785882,22.8183529 91.3129412,23.4602353 L86.4884706,23.4602353 L86.8818824,24.9096471 L93.1971765,24.9096471 C93.5284706,23.4809412 93.8390588,22.0729412 94.1082353,20.7270588 C94.2531765,20.0023529 94.0461176,19.6296471 93.1143529,19.6296471 L83.0098824,19.6296471 L83.5689412,17.2070588 L89.9463529,17.2070588 C90.1534118,17.2070588 90.1534118,17.2691765 90.1327059,17.4141176 C90.112,17.6004706 90.0705882,17.8075294 90.0291765,17.9731765 L88.3312941,17.9731765 L88.8696471,19.2776471 L91.9134118,19.2776471 C92.1204706,18.4494118 92.3275294,17.6211765 92.4931765,16.7929412 C92.6381176,16.0889412 92.2861176,15.9025882 91.6649412,15.9025882 L87.648,15.9025882 C87.7722353,15.6955294 87.8757647,15.4677647 87.9585882,15.2607059 L94.4809412,15.2607059 L94.7294118,14.1425882 L90.464,14.1425882 L90.5468235,13.6456471 L94.0875294,13.6456471 L94.2945882,12.6310588 L90.7124706,12.6310588 L90.7952941,12.2169412 L94.2738824,12.2169412 L94.4602353,11.2230588 L90.9609412,11.2230588 L91.0230588,10.8089412 L94.8743529,10.8089412 L95.1021176,9.69082353 L91.3750588,9.69082353 C91.2715294,9.44235294 91.1887059,9.17317647 91.1265882,8.92470588 L95.9096471,8.92470588 L96.1995294,7.35105882 L88.5176471,7.35105882 C88.4141176,6.99905882 88.2898824,6.62635294 88.2070588,6.29505882 L85.3703529,6.29505882 C85.4324706,6.58494118 85.5152941,6.97835294 85.6188235,7.35105882 L78.0611765,7.35105882 C77.9990588,10.2705882 77.7712941,13.3764706 77.3364706,16.3167059 C76.8395294,19.6503529 76.032,22.4456471 74.8724706,24.9096471 L77.2329412,24.9096471 Z M82.3265882,15.4056471 L83.0098824,10.6847059 C83.4861176,10.2084706 83.8795294,9.67011765 84.128,9.09035294 L82.2230588,9.09035294 C81.8296471,9.79435294 80.9392941,10.3948235 80.256,10.7468235 L80.0489412,12.6103529 C80.3388235,12.4861176 80.6494118,12.3411765 80.9392941,12.1962353 L80.4009412,15.4056471 L82.3265882,15.4056471 Z M88.9317647,11.2230588 L86.1985882,11.2230588 L86.2607059,10.8089412 L89.0145882,10.8089412 L88.9317647,11.2230588 Z M88.704,12.6310588 L85.9501176,12.6310588 L86.0329412,12.2169412 L88.7661176,12.2169412 L88.704,12.6310588 Z M88.4348235,14.1425882 L85.7016471,14.1425882 L85.7844706,13.6456471 L88.5383529,13.6456471 L88.4348235,14.1425882 Z M87.8343529,19.2776471 C87.5237647,18.6978824 87.2131765,18.0767059 86.9647059,17.5176471 L84.8734118,17.5176471 C85.1011765,18.0974118 85.3496471,18.6978824 85.6188235,19.2776471 L87.8343529,19.2776471 Z M90.0498824,22.8804706 L90.3397647,21.576 L79.1171765,21.5552941 L79.4070588,22.8804706 L90.0498824,22.8804706 Z M113.613176,9.256 L113.923765,7.35105882 L100.112941,7.35105882 L99.8023529,9.256 L113.613176,9.256 Z M114.151529,24.9096471 C112.495059,22.3628235 110.942118,19.8781176 109.803294,17.704 L107.235765,17.704 C108.022588,19.2983529 108.892235,20.9755294 109.803294,22.632 L100.630588,22.632 C102.369882,20.6856471 104.461176,18.1181176 106.324706,15.3228235 L114.752,15.3228235 L115.041882,13.4178824 L97.5661176,13.4178824 L97.2762353,15.3228235 L103.343059,15.3228235 C101.438118,18.3251765 98.9327059,21.5345882 96.1788235,24.5369412 L109.492706,24.5369412 L110.176,23.2945882 C110.465882,23.8329412 110.755765,24.3712941 111.066353,24.9096471 L114.151529,24.9096471 Z" id="维鹰云" fill="#FFFFFF" fill-rule="nonzero" mask="url(#mask-2)"></path>
                <g mask="url(#mask-2)">
                    <g transform="translate(0.000000, -8.000000)">
                        <mask id="mask-4" fill="white">
                            <use xlink:href="#path-3"></use>
                        </mask>
                        <g id="蒙版" stroke="none" fill="none"></g>
                        <g id="编组" stroke="none" stroke-width="1" fill="none" fill-rule="evenodd" transform="translate(0.000000, 13.391304)">
                            <mask id="mask-6" fill="white">
                                <use xlink:href="#path-5"></use>
                            </mask>
                            <g id="Clip-447"></g>
                            <polygon id="Fill-446" fill="#0076FF" mask="url(#mask-6)" points="-1 20.0745342 45 20.0745342 45 -0.99378882 -1 -0.99378882"></polygon>
                        </g>
                    </g>
                </g>
            </g>
        </g>
    </g>
</svg>