<?xml version="1.0" standalone="no"?><!DOCTYPE svg PUBLIC "-//W3C//DTD SVG 1.1//EN" "http://www.w3.org/Graphics/SVG/1.1/DTD/svg11.dtd"><svg t="1629894081411" class="icon" viewBox="0 0 1024 1024" version="1.1" xmlns="http://www.w3.org/2000/svg" p-id="1204" xmlns:xlink="http://www.w3.org/1999/xlink" width="200" height="200"><defs><style type="text/css"></style></defs><path d="M538.197333 89.6l283.477334 96.725333A77.312 77.312 0 0 1 874.666667 259.029333v283.349334a351.402667 351.402667 0 0 1-89.813334 233.941333c-26.581333 29.738667-60.586667 55.296-104.021333 78.165333l-153.173333 80.426667a33.578667 33.578667 0 0 1-30.72 0l-153.514667-80.469333c-43.52-22.912-77.610667-48.469333-104.106667-78.08A351.701333 351.701333 0 0 1 149.333333 542.208c0-17.322667 14.506667-31.402667 32.298667-31.402667 17.834667 0 32.341333 14.08 32.341333 31.402667 0 70.912 26.325333 139.434667 74.154667 193.024 21.290667 23.893333 49.450667 44.8 86.016 64l138.112 72.362667 137.813333-72.362667c36.48-19.157333 64.597333-40.064 85.973334-64a289.706667 289.706667 0 0 0 74.026666-192.853333v-283.306667a14.293333 14.293333 0 0 0-9.813333-13.482667L516.906667 148.906667a15.232 15.232 0 0 0-9.728 0L223.744 245.589333a14.250667 14.250667 0 0 0-9.813333 13.44v81.066667c0 17.365333-14.464 31.445333-32.298667 31.445333a31.914667 31.914667 0 0 1-32.298667-31.445333v-81.066667c0-32.682667 21.333333-61.866667 53.034667-72.704L485.76 89.6a82.389333 82.389333 0 0 1 52.48 0zM430.506667 613.546667a32.682667 32.682667 0 0 1-22.826667-9.258667 30.762667 30.762667 0 0 1 0-44.373333l58.069333-56.405334-58.069333-56.490666a30.762667 30.762667 0 0 1 0-44.373334 32.981333 32.981333 0 0 1 45.653333 0l58.069334 56.490667 58.112-56.490667a32.981333 32.981333 0 0 1 45.653333 0 30.762667 30.762667 0 0 1 0 44.373334l-58.069333 56.490666 58.069333 56.405334a30.762667 30.762667 0 0 1 0 44.373333 32.682667 32.682667 0 0 1-22.826667 9.216 32.512 32.512 0 0 1-22.826666-9.216l-58.112-56.405333-58.069334 56.405333a32.682667 32.682667 0 0 1-22.826666 9.216z" fill="#d81e06" p-id="1205"></path></svg>