<?xml version="1.0" standalone="no"?><!DOCTYPE svg PUBLIC "-//W3C//DTD SVG 1.1//EN" "http://www.w3.org/Graphics/SVG/1.1/DTD/svg11.dtd"><svg t="1629365830797" class="icon" viewBox="0 0 1024 1024" version="1.1" xmlns="http://www.w3.org/2000/svg" p-id="3439" width="500" height="500" xmlns:xlink="http://www.w3.org/1999/xlink"><defs><style type="text/css"></style></defs><path d="M503.519694 18.105666c7.621503 10.334038 15.879131 20.23599 24.268785 30.005916a702.53452 702.53452 0 0 0 61.020031 62.412306c27.821486 25.096948 57.887414 48.177499 90.509846 66.709153 34.074719 19.359817 71.114022 33.606626 110.20573 38.083509a197.486939 197.486939 0 0 0 116.975064-23.164567c4.800947-2.604514 9.421858-5.413067 13.970754-8.401657l-18.003549-10.358042-1.908377 39.703829-4.800946 100.543824-6.421266 133.526328-6.661314 138.639335-5.569098 115.894852-3.14462 65.304876c-0.084017 1.680331-0.312062 3.444679-0.25205 5.12501 0.084017 2.076409 0.312062-2.400473 0.384076-2.508494a22.804496 22.804496 0 0 0-0.936184 3.996788c-1.968388 7.981574-4.380864 15.867129-7.105401 23.63266q-1.36827 3.912771-2.868566 7.777533-0.744147 1.932381-1.512298 3.840757l-1.008199 2.400474c0.66013-1.608317 0.096019-0.20404-0.264052 0.624123-2.664525 6.133209-5.545093 12.1704-8.713718 18.003549-7.105401 13.202603-14.1988 23.704674-24.004733 33.738653a91.362014 91.362014 0 0 1-24.244781 18.00355c-16.107176 8.701716-32.982503 16.023159-49.773814 23.260586l-7.081396 3.036599-4.080804 1.72834h0.108021l-2.784549 1.200237q-8.401657 3.504691-16.803313 6.961373-17.943538 7.369453-36.0071 14.522863-36.319161 14.40284-72.854365 28.337588-50.409939 19.203786-101.059926 37.795452l-5.245034 1.908376c-5.593103 2.040402-9.529879 6.985377-8.593695 13.202603a12.002367 12.002367 0 0 0 11.786324 10.406052h1.896374a12.002367 12.002367 0 0 0 11.786324-10.406052c0.744147-6.205223-2.832559-11.078184-8.593694-13.202603q-36.811258-13.382639-73.442481-27.257374c-47.769419-18.00355-95.442819-36.295156-142.660129-55.714986q-8.605697-3.540698-17.187388-7.141408l-1.848365-0.780154c0.396078 0.168033 2.196433 0.936185 0.108021 0l-3.60071-1.536303-8.401656-3.60071c-9.373848-4.044798-18.711689-8.185614-27.953512-12.506465-7.081396-3.312653-14.138788-6.721325-21.004141-10.454062a90.941931 90.941931 0 0 1-24.604852-18.567661q-3.60071-3.780745-6.961372-7.86155c-0.516102-0.636125-1.044206-1.272251-1.548305-1.920378 0.996196 1.272251-0.264052-0.348069-0.384076-0.5041q-1.848364-2.460485-3.60071-4.992984a188.077084 188.077084 0 0 1-11.270222-18.615671c-3.120615-5.869157-6.001183-11.894345-8.593695-18.00355-0.828163-1.932381 1.020201 2.568506-0.240047-0.600118l-0.792156-1.956386q-0.768151-1.908376-1.500296-3.828755-1.560308-4.068802-2.988589-8.185614c-2.640521-7.597498-4.992984-15.327022-6.901361-23.140562a22.912518 22.912518 0 0 0-0.840166-3.60071c1.200237 2.844561 0.396078 4.236835 0.396078 2.472487 0-16.287211-1.57231-32.730454-2.400473-48.99366l-5.12501-106.35297-6.505283-135.218661-6.625306-137.787168-5.317049-110.697826-2.748542-57.10726-0.120023-2.568507-18.00355 10.358043c34.806863 22.528442 75.614909 34.494801 117.119092 32.634434 39.211731-1.764348 76.983179-14.40284 111.622009-32.406389 33.606626-17.463443 64.584734-40.111909 93.210379-64.884794a691.240293 691.240293 0 0 0 65.064829-64.560729c10.09399-11.390246 21.220184-23.12856 29.573831-35.935086 0.108021-0.168033 0.25205-0.336066 0.372073-0.504099 3.85276-5.221029 0.86417-13.394641-4.30885-16.419238-6.097202-3.60071-12.566478-0.924182-16.419237 4.30885-0.468092 0.636125-0.948187 1.260248-1.428282 1.896374l-0.804158 1.056208c-0.960189 1.272251 2.400473-3.024596 0.720142-0.936184l-2.5325 3.252641q-7.90956 9.985969-16.263206 19.611867a704.190847 704.190847 0 0 1-59.411714 61.056038q-9.469867 8.605697-19.299806 16.803313-5.161018 4.320852-10.430056 8.521681c-1.644324 1.308258-3.288648 2.604514-4.944975 3.888766s0.900177-0.672133-0.91218 0.696138l-2.952582 2.244442a455.849881 455.849881 0 0 1-46.113093 30.798073c-8.041586 4.608909-16.203195 9.013777-24.508832 13.010565-4.236835 2.040402-8.52168 3.972783-12.842532 5.845153-1.272251 0.552109 0.180035-0.072014 0.372073-0.156031l-1.500296 0.624123-3.012594 1.200237q-3.264644 1.308258-6.553292 2.532499a260.871437 260.871437 0 0 1-26.681261 8.401656q-6.481278 1.644324-13.046572 2.916576-3.408672 0.66013-6.841349 1.200236l-3.168625 0.480095a8.617699 8.617699 0 0 1-1.57231 0.20404 202.239876 202.239876 0 0 1-27.173358 1.464289q-6.99738-0.120024-13.982757-0.756149-3.240639-0.300059-6.469275-0.720142c2.304454 0.300059-0.948187-0.156031-1.668329-0.264052q-1.896374-0.300059-3.780746-0.636126a179.951481 179.951481 0 0 1-27.605443-7.20142q-3.264644-1.200237-6.49328-2.400473c-1.272251-0.492097-2.532499-0.996196-3.780745-1.524301 1.692334 0.70814-1.476291-0.672133-1.992393-0.900177q-6.901361-3.108613-13.514665-6.709323c-4.800947-2.604514-9.409855-5.413067-13.970755-8.401656-7.477474-4.800947-18.483644 1.452286-18.003549 10.358042l1.932381 40.231932 4.896965 101.732059 6.481278 134.786576 6.697321 139.37148 5.533091 115.222719 3.048601 63.528526a66.781167 66.781167 0 0 0 2.088412 13.730707 264.352123 264.352123 0 0 0 25.120953 63.288479c13.142591 23.392612 30.906094 43.976671 54.682782 56.90322 16.107176 8.761728 33.01851 16.083171 49.833825 23.344603 47.685402 20.572056 96.114951 39.403769 144.616515 57.923421q50.81802 19.407827 101.912094 38.119516l5.389063 1.968388 3.192629-23.572648h-1.896374l3.19263 23.572648q37.207336-13.550672 74.342658-27.605443c48.12949-18.123573 96.162961-36.583213 143.716337-56.171076 21.040149-8.665709 42.008283-17.487448 62.676358-27.125348 18.087566-8.401657 35.442988-17.427436 49.617783-31.890288 20.308004-20.728087 33.822669-47.373341 43.628602-74.414672 3.85276-10.622094 8.56969-22.444425 9.445863-33.858676 1.200237-15.363029 1.488293-30.846082 2.220438-46.233116l5.028991-105.920885 6.529288-135.77077 6.673315-138.50731 5.401065-112.34215 2.772547-57.61136 0.132026-2.64052c0.432085-8.917758-10.586087-15.206998-18.00355-10.358043a207.064827 207.064827 0 0 1-27.509424 15.002958c-0.504099 0.228045-3.708731 1.620319-1.992393 0.900178-1.080213 0.45609-2.160426 0.888175-3.240639 1.32026q-3.492689 1.380272-7.033387 2.616516-6.94937 2.400473-14.066773 4.284845-6.697321 1.740343-13.526667 2.964585l-3.240639 0.552108c-0.444088 0.072014-3.900769 0.576114-2.724537 0.420083s-1.692334 0.20404-2.184431 0.25205q-1.884372 0.216043-3.768743 0.384076a188.437155 188.437155 0 0 1-27.353393 0.516101c-4.620911-0.240047-9.22982-0.672133-13.826727-1.200236l-1.584312-0.20404c0.180035 0 1.956386 0.276054 0.552109 0.072014l-3.168625-0.480095q-3.696729-0.588116-7.369453-1.296255a241.66765 241.66765 0 0 1-26.477221-6.733328q-6.685318-2.100414-13.202603-4.548897-3.036599-1.128222-6.001183-2.328459l-3.012594-1.200237-1.500296-0.624123c-1.752346-0.720142 1.608317 0.696137-0.132026 0q-12.962556-5.617108-25.457019-12.242414a423.911583 423.911583 0 0 1-46.80923-29.201757q-5.641112-4.020793-11.174203-8.197617l-2.532499-1.920378-1.200237-0.96019c0.156031 0.120024 1.416279 1.104218 0.348069 0.264052q-2.89257-2.256445-5.761136-4.536894-10.214014-8.161609-20.055955-16.803313a694.01284 694.01284 0 0 1-63.012424-62.832389q-9.601893-10.910151-18.843716-22.240385c-1.896374-2.400473-3.756741-4.704928-5.617107-7.069394-1.57231-1.992393 1.464289 1.920379 0.792156 1.032203l-0.876173-1.200236-1.056208-1.392275-0.372073-0.504099c-3.840757-5.209027-10.406052-7.825543-16.419238-4.30885-5.137013 3.000592-8.173612 11.174203-4.308849 16.419238z" fill="#0076ff" p-id="3440"></path><path d="M428.804962 604.745335a118.631391 118.631391 0 1 1 145.876763 11.618291 124.368522 124.368522 0 0 1-17.259403 9.541881c-2.808554 1.272251-5.677119 2.400473-8.56969 3.408672q-2.400473 0.828163-4.800947 1.560308a22.168371 22.168371 0 0 0-2.400473 0.708139c-0.780154 0.348069-1.200237 0.564111-0.060012 0.240048-1.656327 0.492097-3.60071 0.468092-5.341053 0.852168a48.621587 48.621587 0 0 0-9.133801 3.156622 40.063899 40.063899 0 0 0-19.203786 17.859521c-6.553292 12.722509-5.149015 27.221367-5.149016 41.072099 0 5.737131-0.156031 11.486265 0 17.223396v0.66013c0 7.717522 12.002367 7.741526 12.002367 0v-20.284c0-7.345448-0.648128-15.387034 0.396078-22.456427a30.846082 30.846082 0 0 1 5.581101-14.282817c1.056208-1.512298-0.720142 0.828163 0.432085-0.576113q0.528104-0.636125 1.080213-1.200237 1.068211-1.200237 2.244442-2.244442c0.384076-0.348069 0.768151-0.672133 1.200237-1.008199 1.272251-1.092215-0.972192 0.672133 0.360071-0.300059 0.91218-0.66013 1.836362-1.284253 2.796551-1.872369a40.92807 40.92807 0 0 1 4.71693-2.400474c-1.620319 0.70814 0.732144-0.264052 1.200237-0.40808q1.200237-0.420083 2.400473-0.768152c1.104218-0.324064 2.23244-0.600118 3.372665-0.828163l1.200237-0.228045c1.620319-0.312062-1.260248 0.096019-0.468092 0 4.884963-0.264052 10.166004-2.664525 14.678894-4.428873a133.778377 133.778377 0 0 0 19.203786-9.241822 130.609753 130.609753 0 0 0 43.928662-182.98808 130.693769 130.693769 0 0 0-142.636124-56.027047 130.537738 130.537738 0 0 0-71.294057 205.384496 134.990616 134.990616 0 0 0 15.158989 16.659284c5.641112 5.257037 14.15079-3.204632 8.485673-8.485673zM509.304834 793.33852c15.447046 0 15.47105-24.004733 0-24.004733s-15.47105 24.004733 0 24.004733z" fill="#0076ff" p-id="3441"></path></svg>