<?xml version="1.0" standalone="no"?><!DOCTYPE svg PUBLIC "-//W3C//DTD SVG 1.1//EN" "http://www.w3.org/Graphics/SVG/1.1/DTD/svg11.dtd"><svg t="1629366188483" class="icon" viewBox="0 0 1024 1024" version="1.1" xmlns="http://www.w3.org/2000/svg" p-id="11263" width="500" height="500" data-spm-anchor-id="a313x.7781069.0.i11" xmlns:xlink="http://www.w3.org/1999/xlink"><defs><style type="text/css"></style></defs><path d="M943.962529 196.14676c0-35.871975-26.079625-64.449649-59.453552-65.249024l-20.483997-0.399688c-3.09758 0-74.741608-1.898517-149.982825-34.473068-79.837627-34.473068-130.198283-72.943013-132.296644-74.541764l-12.39032-9.492584c-10.291959-7.893833-22.282592-11.990632-34.772833-11.990632h-0.099922c-12.690086 0-24.78064 4.196721-35.272444 12.190476l-11.990632 9.29274c-5.69555 4.296643-55.956284 41.567525-132.596409 74.541764-74.541764 32.174863-148.983607 34.473068-149.583138 34.473068l-20.883685 0.399688c-32.674473 0.699454-59.253708 29.976581-59.253708 65.249024v374.607338c0 101.720531 54.257611 215.131928 148.883685 311.056987 71.843872 72.943013 156.677596 124.502732 226.822794 137.992194l0.799376 0.199844 29.776737 2.997658 2.198282 0.099922h0.99922c36.671351 0 80.736924-13.389539 127.400468-38.969555 46.064012-25.180328 92.128025-60.552693 133.395785-102.419985 94.626073-95.925059 148.883685-209.436378 148.883684-311.056987l-0.099922-374.507416z m-180.558938 649.492584c-36.271663 37.870414-76.740047 69.745511-117.108509 92.427791-40.967994 23.081967-79.637783 35.172521-111.912568 35.172522h-0.899298l-1.998438-0.099922-26.179548-2.697893-0.699453-0.199844c-61.651835-12.090554-136.093677-58.654176-199.144419-124.502732-83.135051-86.632319-130.697892-188.952381-130.697892-280.680718V226.922717c0-31.775176 23.381733-58.254489 52.059329-58.854021l18.385636-0.399687c0.599532 0 65.948478-1.998439 131.397346-31.075723C443.953162 106.916472 488.018735 73.242779 493.014832 69.345824l10.491803-8.393443c9.192818-7.194379 19.884465-10.991413 30.975801-10.991413h0.099922c10.991413 0 21.583138 3.697112 30.576112 10.891491l10.891491 8.593287c1.898517 1.498829 46.064012 36.171741 116.209212 67.247462 66.0484 29.377049 128.999219 31.075722 131.697111 31.075723l17.985949 0.399687c29.277127 0.699454 52.159251 26.479313 52.15925 58.854021l0.199844 337.935987c-0.199844 91.728337-47.762685 194.0484-130.897736 280.680718z" p-id="11264" fill="#02c58d"></path><path d="M507.203747 688.861827c-9.79235 9.79235-25.580016 9.79235-35.372365 0L333.339578 550.469945c-9.79235-9.79235-9.79235-25.580016 0-35.372365 9.79235-9.79235 25.580016-9.79235 35.372366 0l138.491803 138.491803c9.79235 9.79235 9.79235 25.580016 0 35.272444z" p-id="11265" fill="#02c58d"></path><path d="M784.287276 376.405933c9.79235 9.79235 9.79235 25.580016 0 35.372365L507.203747 688.861827c-9.79235 9.79235-25.580016 9.79235-35.372365 0-9.79235-9.79235-9.79235-25.580016 0-35.372366l277.083528-277.083528c9.79235-9.692428 25.679938-9.692428 35.372366 0z" p-id="11266" fill="#02c58d"></path></svg>